<?xml version="1.0" encoding="UTF-8"?>
<svg width="148px" height="32px" viewBox="0 0 148 32" version="1.1" xmlns="http://www.w3.org/2000/svg" xmlns:xlink="http://www.w3.org/1999/xlink">
    <!-- Generator: Sketch 62 (91390) - https://sketch.com -->
    <title>logo/complete/horizontal@3x</title>
    <desc>Created with Sketch.</desc>
    <defs>
        <rect id="path-1" x="0" y="0" width="32" height="32" rx="16"></rect>
        <radialGradient cx="50%" cy="0.318899133%" fx="50%" fy="0.318899133%" r="99.6811009%" id="radialGradient-3">
            <stop stop-color="#DDEEC9" offset="0.0290329392%"></stop>
            <stop stop-color="#78BE20" offset="100%"></stop>
        </radialGradient>
        <linearGradient x1="38.099077%" y1="30.9692383%" x2="17.0850118%" y2="100%" id="linearGradient-4">
            <stop stop-color="#78BE20" offset="0%"></stop>
            <stop stop-color="#FFFFFF" offset="100%"></stop>
        </linearGradient>
    </defs>
    <g id="logo/complete/horizontal" stroke="none" stroke-width="1" fill="none" fill-rule="evenodd">
        <g id="logo/isotype">
            <g id="isotype">
                <mask id="mask-2" fill="white">
                    <use xlink:href="#path-1"></use>
                </mask>
                <g id="Mask"></g>
                <circle id="center" fill="url(#radialGradient-3)" mask="url(#mask-2)" cx="16" cy="16" r="6.66666667"></circle>
                <g id="exterior" mask="url(#mask-2)" fill="url(#linearGradient-4)">
                    <g transform="translate(16.000000, 16.000000) rotate(-10.000000) translate(-16.000000, -16.000000) ">
                        <path d="M15.8171093,6.66173442 C14.0612168,6.56678709 12.6666667,5.11291753 12.6666667,3.33333333 C12.6666667,1.49238417 14.1590508,0 16,0 L16,0 C24.836556,0 32,7.163444 32,16 C32,24.836556 24.836556,32 16,32 L16,25.3333333 C21.1546577,25.3333333 25.3333333,21.1546577 25.3333333,16 C25.3333333,10.8453423 21.1546577,6.66666667 16,6.66666667 Z" id="right"></path>
                        <path d="M3.15044266,6.66173442 C1.39455009,6.56678709 -7.10542736e-15,5.11291753 -7.10542736e-15,3.33333333 C-7.10542736e-15,1.49238417 1.49238417,0 3.33333333,0 L3.33333333,0 C12.1698893,0 19.3333333,7.163444 19.3333333,16 C19.3333333,24.836556 12.1698893,32 3.33333333,32 L3.33333333,32 C5.1742825,32 6.66666667,30.5076158 6.66666667,28.6666667 C6.66666667,26.8257175 5.1742825,25.3333333 3.33333333,25.3333333 C8.487991,25.3333333 12.6666667,21.1546577 12.6666667,16 C12.6666667,10.8453423 8.487991,6.66666667 3.33333333,6.66666667 Z" id="left" transform="translate(9.666667, 16.000000) scale(-1, -1) translate(-9.666667, -16.000000) "></path>
                    </g>
                </g>
            </g>
        </g>
        <g id="logo/text" transform="translate(42.000000, 6.000000)" fill="#202020" fill-rule="nonzero">
            <path d="M2.42090784,19.6973865 L2.42090784,11.5543329 L8.80330124,11.5543329 L8.80330124,9.49105915 L2.42090784,9.49105915 L2.42090784,3.30123796 L10.7015131,3.30123796 L10.7015131,1.21045392 L2.84217094e-14,1.21045392 L2.84217094e-14,19.6973865 L2.42090784,19.6973865 Z M17.6891334,19.9449794 C19.3397524,19.9449794 20.7427785,19.3122421 21.8707015,18.5144429 L22.0082531,18.5144429 L22.2833563,19.6973865 L24.264099,19.6973865 L24.264099,6.02475928 L21.8982118,6.02475928 L21.8982118,16.9463549 C20.9353508,17.4415406 19.7799175,17.9367263 18.3768913,17.9367263 C16.3961486,17.9367263 15.8184319,17.221458 15.8184319,15.5433287 L15.8184319,6.02475928 L13.5075653,6.02475928 L13.5075653,15.9284732 C13.5075653,18.5694635 14.9656121,19.9449794 17.6891334,19.9449794 Z M30.4264099,19.6973865 L30.4264099,0 L28.0605227,0 L28.0605227,19.6973865 L30.4264099,19.6973865 Z M36.6712517,19.6973865 L36.6712517,0 L34.3053645,0 L34.3053645,19.6973865 L36.6712517,19.6973865 Z M48.3906465,20 C50.784044,20 52.7647868,19.5048143 54.1678129,18.9270977 L54.1678129,10.6464924 L47.8954608,10.6464924 L47.8954608,12.6547455 L51.7744154,12.6547455 L51.7744154,17.4415406 C50.9491059,17.7441541 49.6836314,17.9642366 48.4731774,17.9642366 C43.5763411,17.9642366 42.4209078,14.9105915 42.4209078,10.8115543 L42.4209078,9.95873453 C42.4209078,6.35488308 43.9064649,2.97111417 48.4181568,2.97111417 C50.9215956,2.97111417 52.3246217,3.60385144 53.4525447,4.09903714 L53.4525447,2.03576341 C52.352132,1.43053645 50.8940853,0.90784044 48.610729,0.90784044 C44.0165062,0.90784044 39.8074278,3.30123796 39.8074278,10.3163686 L39.8074278,10.866575 C39.8074278,17.2489684 43.218707,20 48.3906465,20 Z M60.0550206,19.6973865 L60.0550206,9.02338377 C61.0178817,8.39064649 62.3108666,7.97799175 63.6038514,7.97799175 C63.823934,7.97799175 64.264099,8.00550206 64.6492435,8.0605227 L64.6492435,5.96973865 C64.5116919,5.91471802 64.1265475,5.85969739 63.7964237,5.85969739 C62.3108666,5.85969739 60.8253095,6.62998624 60.0825309,7.53782669 L59.9449794,7.53782669 L59.9449794,6.02475928 L57.7166437,6.02475928 L57.7166437,19.6973865 L60.0550206,19.6973865 Z M72.7372765,19.9449794 C74.9931224,19.9449794 76.5612105,19.2297111 77.3590096,18.6244842 L77.3590096,16.8913343 C76.1210454,17.5515818 74.9381018,17.9367263 73.1224209,17.9367263 C70.3988996,17.9367263 68.8033012,16.781293 68.6382393,13.5350757 L77.7716644,13.5350757 L77.7716644,12.2145805 C77.7716644,7.92297111 75.9834938,5.74965612 72.2420908,5.74965612 C69.0508941,5.74965612 66.2173315,7.8954608 66.2173315,12.6547455 L66.2173315,13.0674003 C66.2173315,17.2764787 68.4181568,19.9449794 72.7372765,19.9449794 Z M75.2957359,11.6368638 L68.6382393,11.6368638 C68.8583219,8.50068776 70.5914718,7.64786795 72.1320495,7.64786795 C74.1953232,7.64786795 75.2957359,8.77579092 75.2957359,11.6368638 Z M86.3273728,19.9449794 C88.5832187,19.9449794 90.1513067,19.2297111 90.9491059,18.6244842 L90.9491059,16.8913343 C89.7111417,17.5515818 88.5281981,17.9367263 86.7125172,17.9367263 C83.9889959,17.9367263 82.3933975,16.781293 82.2283356,13.5350757 L91.3617607,13.5350757 L91.3617607,12.2145805 C91.3617607,7.92297111 89.5735901,5.74965612 85.8321871,5.74965612 C82.6409904,5.74965612 79.8074278,7.8954608 79.8074278,12.6547455 L79.8074278,13.0674003 C79.8074278,17.2764787 82.0082531,19.9449794 86.3273728,19.9449794 Z M88.8858322,11.6368638 L82.2283356,11.6368638 C82.4484182,8.50068776 84.1815681,7.64786795 85.7221458,7.64786795 C87.7854195,7.64786795 88.8858322,8.77579092 88.8858322,11.6368638 Z M96.5887208,19.6973865 L96.5887208,8.69325997 C97.5790922,8.22558459 98.9821183,7.78541953 100.192572,7.78541953 C102.338377,7.78541953 102.861073,8.44566713 102.861073,10.0137552 L102.861073,19.6973865 L105.171939,19.6973865 L105.171939,9.51856946 C105.171939,6.87757909 103.906465,5.74965612 101.210454,5.74965612 C99.5323246,5.74965612 97.7716644,6.3823934 96.6162311,7.20770289 L96.4786795,7.20770289 L96.4786795,6.02475928 L94.2503439,6.02475928 L94.2503439,19.6973865 L96.5887208,19.6973865 Z"></path>
        </g>
    </g>
</svg>