<?xml version="1.0" encoding="UTF-8"?>
<svg width="24px" height="24px" viewBox="0 0 24 24" version="1.1" xmlns="http://www.w3.org/2000/svg" xmlns:xlink="http://www.w3.org/1999/xlink">
    <!-- Generator: Sketch 62 (91390) - https://sketch.com -->
    <title>icon/loupe@3x</title>
    <desc>Created with Sketch.</desc>
    <g id="icon/loupe" stroke="none" stroke-width="1" fill="none" fill-rule="evenodd">
        <path d="M8,0 C12.418278,0 16,3.581722 16,8 C16,9.84865955 15.3729536,11.5508646 14.3199461,12.9055298 L23.9852814,22.5710678 L22.5710678,23.9852814 L12.9055298,14.3199461 C11.5508646,15.3729536 9.84865955,16 8,16 C3.581722,16 1.77635684e-14,12.418278 1.77635684e-14,8 C1.77635684e-14,3.581722 3.581722,0 8,0 Z M8,2 C4.6862915,2 2,4.6862915 2,8 C2,11.3137085 4.6862915,14 8,14 C11.3137085,14 14,11.3137085 14,8 C14,4.6862915 11.3137085,2 8,2 Z" id="loupe" fill="#78BE20"></path>
    </g>
</svg>